HIERARCHY
ROOT pelvis
{
	OFFSET 0.000000 0.000000 0.860057
	CHANNELS 6 Xposition Yposition Zposition Xrotation Yrotation Zrotation
	JOINT spine
	{
		OFFSET 0.000000 0.000000 0.000000
		CHANNELS 6 Xposition Yposition Zposition Xrotation Yrotation Zrotation
		JOINT spine.001
		{
			OFFSET 0.000000 -0.013660 0.260655
			CHANNELS 3 Xrotation Yrotation Zrotation
			JOINT neck
			{
				OFFSET 0.000000 0.031809 0.259067
				CHANNELS 6 Xposition Yposition Zposition Xrotation Yrotation Zrotation
				JOINT face
				{
					OFFSET 0.000000 0.003755 0.215098
					CHANNELS 6 Xposition Yposition Zposition Xrotation Yrotation Zrotation
					End Site
					{
						OFFSET 0.000000 -0.032339 -0.008359
					}
				}
			}
			JOINT shoulder.L
			{
				OFFSET 0.000000 0.031809 0.259067
				CHANNELS 6 Xposition Yposition Zposition Yrotation Xrotation Zrotation
				JOINT upper_arm.L
				{
					OFFSET 0.165174 0.000000 0.000000
					CHANNELS 6 Xposition Yposition Zposition Xrotation Yrotation Zrotation
					JOINT forearm.L
					{
						OFFSET 0.286643 0.000125 0.001034
						CHANNELS 6 Xposition Yposition Zposition Xrotation Yrotation Zrotation
						End Site
						{
							OFFSET 0.240020 -0.004075 -0.001423
						}
					}
				}
			}
			JOINT shoulder.R
			{
				OFFSET 0.000000 0.031809 0.259067
				CHANNELS 6 Xposition Yposition Zposition Yrotation Xrotation Zrotation
				JOINT upper_arm.R
				{
					OFFSET -0.165174 0.000000 0.000000
					CHANNELS 6 Xposition Yposition Zposition Xrotation Yrotation Zrotation
					JOINT forearm.R
					{
						OFFSET -0.289110 0.000125 0.001034
						CHANNELS 6 Xposition Yposition Zposition Xrotation Yrotation Zrotation
						End Site
						{
							OFFSET -0.238651 -0.004051 -0.001423
						}
					}
				}
			}
		}
	}
	JOINT pelvis.L
	{
		OFFSET 0.000000 0.000000 0.000000
		CHANNELS 6 Xposition Yposition Zposition Yrotation Xrotation Zrotation
		End Site
		{
			OFFSET 0.104399 0.000000 0.000000
		}
	}
	JOINT pelvis.R
	{
		OFFSET 0.000000 0.000000 0.000000
		CHANNELS 6 Xposition Yposition Zposition Yrotation Xrotation Zrotation
		End Site
		{
			OFFSET -0.104399 0.000000 0.000000
		}
	}
	JOINT thigh.L
	{
		OFFSET 0.104399 0.000000 0.000000
		CHANNELS 6 Xposition Yposition Zposition Xrotation Yrotation Zrotation
		JOINT shin.L
		{
			OFFSET 0.021308 0.000000 -0.406588
			CHANNELS 6 Xposition Yposition Zposition Xrotation Yrotation Zrotation
			JOINT foot.L
			{
				OFFSET 0.019716 0.000000 -0.376210
				CHANNELS 3 Xrotation Yrotation Zrotation
				End Site
				{
					OFFSET 0.016962 -0.172945 -0.072623
				}
			}
			JOINT heel.02.L
			{
				OFFSET 0.019716 0.000000 -0.376210
				CHANNELS 3 Xrotation Yrotation Zrotation
				End Site
				{
					OFFSET 0.092026 0.037199 -0.071467
				}
			}
		}
	}
	JOINT thigh.R
	{
		OFFSET -0.104399 0.000000 0.000000
		CHANNELS 6 Xposition Yposition Zposition Xrotation Yrotation Zrotation
		JOINT shin.R
		{
			OFFSET -0.021045 0.000000 -0.401565
			CHANNELS 6 Xposition Yposition Zposition Xrotation Yrotation Zrotation
			JOINT foot.R
			{
				OFFSET -0.020371 0.000000 -0.388707
				CHANNELS 3 Xrotation Yrotation Zrotation
				End Site
				{
					OFFSET -0.016433 -0.167551 -0.070357
				}
			}
			JOINT heel.02.R
			{
				OFFSET -0.020371 0.000000 -0.388707
				CHANNELS 3 Xrotation Yrotation Zrotation
				End Site
				{
					OFFSET -0.096496 0.037199 -0.063737
				}
			}
		}
	}
}
MOTION
Frames: 10
Frame Time: 0.041667
0.049056 0.002430 0.861368 -0.000000 0.000000 11.186369 -0.000000 0.000000 0.000000 -5.450229 3.733813 0.374469 9.960166 0.747795 6.102498 -0.000000 0.031809 0.259067 4.948449 -3.458204 -3.885441 0.000000 0.003755 0.215098 2.119224 0.000001 -0.000004 0.000000 0.031809 0.259067 -2.031502 0.004421 0.249366 0.165174 -0.000000 -0.000000 45.402200 78.861200 -53.911769 0.286643 0.000125 0.001034 0.297046 6.527838 -3.635524 0.000000 0.031809 0.259067 -1.975677 0.004183 0.242495 -0.165175 -0.000000 -0.000000 31.584810 -74.998694 40.445785 -0.289110 0.000125 0.001034 0.825674 -7.287789 12.082360 0.000000 0.000000 0.000000 3.745252 0.000000 -0.000013 0.000000 0.000000 0.000000 3.745253 -0.000000 -0.000001 0.104176 0.000000 -0.006819 4.325402 7.324836 -0.050369 0.021308 -0.000000 -0.406588 -2.424491 -7.435971 -0.283686 2.252642 7.598976 -18.756714 -7.674623 40.436865 29.676161 -0.104176 0.000000 0.006819 3.814006 -2.673735 -0.111051 -0.021045 -0.000000 -0.401565 4.437242 5.569300 -0.447453 -1.559350 2.889064 -6.232883 -25.042877 -51.816230 -44.448802 
0.048515 0.003311 0.861856 -0.000000 0.000000 11.390613 -0.000000 0.000000 0.000000 -5.313554 3.778391 0.374389 9.963859 0.711260 5.802741 -0.000000 0.031809 0.259067 4.796397 -3.461720 -3.933492 0.000000 0.003755 0.215098 2.180090 -0.000000 -0.000000 -0.000000 0.031809 0.259067 -1.989980 0.004241 0.244244 0.165174 -0.000000 -0.000000 45.591789 78.623230 -54.322076 0.286643 0.000125 0.001034 0.274148 6.458113 -3.250580 -0.000000 0.031809 0.259067 -1.934200 0.004006 0.237362 -0.165175 -0.000000 -0.000000 31.653631 -75.058527 40.490997 -0.289110 0.000125 0.001034 0.865186 -7.414321 12.481682 0.000000 0.000000 0.000000 3.702573 -0.000003 0.000091 0.000000 0.000000 0.000000 3.702573 -0.000000 -0.000001 0.104181 0.000000 -0.006742 4.309441 7.380019 -0.052278 0.021308 0.000000 -0.406588 -2.547705 -7.602894 -0.301798 2.355667 7.655348 -18.924748 -7.479102 40.309277 29.712552 -0.104181 0.000000 0.006742 3.465881 -2.667761 -0.101089 -0.021045 0.000000 -0.401565 5.096673 5.448967 -0.508705 -2.063626 3.004273 -6.304243 -25.014046 -51.774494 -44.135853 
0.047976 0.003915 0.862786 -0.000000 0.000000 11.439842 -0.000000 0.000000 0.000000 -5.148969 3.841408 0.375064 9.969365 0.655645 5.347873 -0.000000 0.031809 0.259067 4.460419 -3.453571 -3.842077 0.000000 0.003755 0.215098 2.417695 0.000000 0.000001 0.000000 0.031809 0.259067 -1.920983 0.003954 0.235804 0.165174 -0.000000 0.000000 44.882536 78.600239 -53.533978 0.286643 0.000125 0.001034 0.274440 6.347143 -3.358232 0.000000 0.031809 0.259067 -1.865163 0.003728 0.228939 -0.165175 0.000000 -0.000000 31.389470 -75.177085 40.085994 -0.289110 0.000125 0.001034 0.961276 -7.761911 13.305696 0.000000 0.000000 0.000000 3.663794 -0.000001 0.000026 0.000000 0.000000 0.000000 3.663794 -0.000000 0.000000 0.104185 -0.000000 -0.006671 4.306345 7.413189 -0.053499 0.021308 -0.000000 -0.406588 -2.611970 -7.728654 -0.312267 2.438634 7.670106 -18.982390 -7.296031 40.214269 29.795652 -0.104185 -0.000000 0.006671 3.100804 -2.653511 -0.090823 -0.021045 0.000000 -0.401565 5.769253 5.340349 -0.570499 -2.656327 3.066967 -6.224723 -25.049177 -51.762578 -43.818696 
0.047717 0.003584 0.863754 -0.000000 0.000000 11.062880 0.000000 -0.000000 0.000000 -4.999199 3.892257 0.374897 9.974810 0.596038 4.860945 -0.000000 0.031809 0.259067 3.907568 -3.378197 -3.519788 -0.000000 0.003755 0.215098 2.878998 -0.000000 -0.000004 -0.000000 0.031809 0.259067 -1.781467 0.003400 0.218709 0.165174 0.000000 -0.000000 42.800072 78.807508 -50.992253 0.286643 0.000125 0.001034 0.300770 6.267635 -3.971533 0.000000 0.031809 0.259067 -1.725602 0.003193 0.211861 -0.165175 -0.000000 -0.000000 31.124947 -75.359403 39.639764 -0.289110 0.000125 0.001034 1.092663 -8.271802 14.233276 0.000000 -0.000000 0.000000 3.617936 0.000001 -0.000029 0.000000 -0.000000 0.000000 3.617938 -0.000000 0.000000 0.104191 0.000000 -0.006588 4.432660 7.446399 -0.056363 0.021308 0.000000 -0.406588 -2.725248 -7.808014 -0.327693 2.455717 7.554690 -18.691392 -7.313473 40.318477 29.976809 -0.104191 0.000000 0.006588 2.797449 -2.634969 -0.082385 -0.021045 0.000000 -0.401565 6.300630 5.318263 -0.621937 -3.159483 2.969406 -5.829416 -25.017224 -51.720115 -43.518752 
0.047945 0.002307 0.864290 -0.000000 0.000000 10.206527 -0.000000 -0.000000 0.000000 -4.926968 3.897973 0.372968 9.977837 0.557548 4.545853 -0.000000 0.031809 0.259067 3.330279 -3.244518 -2.984109 -0.000000 0.003755 0.215098 3.406219 0.000000 0.000006 0.000000 0.031809 0.259067 -1.583347 0.002685 0.194321 0.165174 0.000000 -0.000000 39.687084 79.053982 -47.236745 0.286643 0.000125 0.001034 0.351574 6.405744 -4.840862 0.000000 0.031809 0.259067 -1.527523 0.002500 0.187473 -0.165175 -0.000000 -0.000000 31.068181 -75.565115 39.435713 -0.289110 0.000125 0.001034 1.201715 -8.772837 14.750808 0.000000 0.000000 0.000000 3.540683 0.000001 -0.000026 0.000000 0.000000 0.000000 3.540686 -0.000000 -0.000001 0.104199 0.000000 -0.006447 4.740354 7.530035 -0.063772 0.021308 0.000000 -0.406588 -2.969451 -7.882879 -0.359000 2.337139 7.285080 -17.976134 -7.548021 40.650434 30.295769 -0.104199 -0.000000 0.006447 2.581776 -2.600824 -0.076800 -0.021045 0.000000 -0.401565 6.624259 5.391355 -0.658159 -3.488403 2.676710 -5.079359 -24.743142 -51.556293 -43.177574 
0.048531 0.000712 0.864265 -0.000000 0.000000 9.117252 -0.000000 0.000000 -0.000000 -4.956889 3.872342 0.371534 9.979822 0.533225 4.347578 0.000000 0.031809 0.259067 2.966234 -3.141857 -2.219978 -0.000000 0.003755 0.215098 3.786312 -0.000000 0.000003 0.000000 0.031809 0.259067 -1.400218 0.002100 0.171892 0.165174 0.000000 -0.000000 36.541847 79.159413 -43.536585 0.286643 0.000125 0.001034 0.423291 6.873117 -5.648397 0.000000 0.031809 0.259067 -1.344393 0.001937 0.165035 -0.165175 0.000000 -0.000000 31.180865 -75.713248 39.477763 -0.289110 0.000125 0.001034 1.256070 -9.153210 14.726485 0.000000 0.000000 0.000000 3.413461 0.000000 0.000015 0.000000 0.000000 0.000000 3.413429 -0.000000 0.000001 0.104213 0.000000 -0.006216 5.146777 7.681156 -0.076097 0.021308 -0.000000 -0.406588 -3.293000 -7.985600 -0.401073 2.048431 6.931095 -17.017771 -7.857390 41.086665 30.729759 -0.104213 0.000000 0.006216 2.445831 -2.546743 -0.073912 -0.021045 0.000000 -0.401565 6.750356 5.503930 -0.677317 -3.692502 2.274893 -4.142942 -24.225404 -51.262069 -42.753473 
0.049072 -0.000684 0.863858 -0.000000 0.000000 8.076267 -0.000000 -0.000000 -0.000000 -5.057882 3.868427 0.374599 9.983192 0.487230 3.971866 -0.000000 0.031809 0.259067 2.867351 -3.152985 -1.189399 -0.000000 0.003755 0.215098 3.967698 -0.000000 0.000001 -0.000000 0.031810 0.259067 -1.290229 0.001784 0.158453 0.165174 -0.000000 -0.000000 34.270508 79.183490 -40.888644 0.286643 0.000125 0.001034 0.496508 7.428786 -6.258375 -0.000000 0.031810 0.259067 -1.234448 0.001633 0.151586 -0.165175 -0.000000 -0.000000 31.492937 -75.746996 39.838318 -0.289110 0.000125 0.001034 1.266394 -9.401615 14.388280 0.000000 0.000000 -0.000000 3.267121 0.000000 0.000008 0.000000 0.000000 -0.000000 3.267121 -0.000000 0.000000 0.104229 0.000000 -0.005950 5.544795 7.846092 -0.090051 0.021308 -0.000000 -0.406588 -3.613484 -8.094790 -0.443559 1.650171 6.584488 -16.073250 -8.135337 41.512134 31.207561 -0.104229 0.000000 0.005950 2.377189 -2.490309 -0.073007 -0.021045 0.000000 -0.401565 6.728531 5.613684 -0.681540 -3.832068 1.874317 -3.234870 -23.628382 -50.917486 -42.290240 
0.049267 -0.002026 0.863309 -0.000000 0.000000 7.072273 -0.000000 -0.000000 0.000000 -5.198714 3.911838 0.383661 9.987862 0.412213 3.359141 0.000000 0.031809 0.259067 2.909290 -3.254173 -0.012018 -0.000000 0.003755 0.215098 4.067253 -0.000000 0.000003 0.000000 0.031809 0.259067 -1.234703 0.001633 0.151538 0.165174 -0.000000 -0.000000 33.191075 79.332722 -39.537670 0.286643 0.000125 0.001034 0.538538 7.579935 -6.771574 0.000000 0.031809 0.259067 -1.178920 0.001489 0.144690 -0.165175 0.000000 -0.000000 32.052657 -75.724880 40.538173 -0.289110 0.000125 0.001034 1.233290 -9.471411 13.837632 0.000000 -0.000000 0.000000 3.174661 0.000000 -0.000012 0.000000 -0.000000 0.000000 3.174696 -0.000000 0.000000 0.104238 -0.000000 -0.005782 5.936252 7.965959 -0.102692 0.021308 0.000000 -0.406588 -3.943040 -8.173359 -0.486733 1.240050 6.253024 -15.182942 -8.440258 41.954113 31.700438 -0.104238 0.000000 0.005782 2.358641 -2.451023 -0.073247 -0.021045 0.000000 -0.401565 6.605411 5.739570 -0.676265 -3.890613 1.477771 -2.361656 -23.035457 -50.567982 -41.840236 
0.049179 -0.003801 0.862816 -0.000000 0.000000 5.881212 0.000000 -0.000000 0.000000 -5.379321 3.965496 0.395242 9.991387 0.348558 2.840175 0.000000 0.031809 0.259067 2.952796 -3.333607 1.039987 -0.000000 0.003755 0.215098 4.214113 0.000000 -0.000001 0.000000 0.031809 0.259067 -1.168265 0.001461 0.143367 0.165174 -0.000000 0.000000 33.090542 79.694203 -39.190003 0.286643 0.000125 0.001034 0.534326 7.091659 -7.359866 0.000000 0.031809 0.259067 -1.112435 0.001325 0.136584 -0.165175 -0.000000 -0.000000 32.594670 -75.788715 41.157747 -0.289110 0.000125 0.001034 1.133126 -9.256079 12.919879 0.000000 -0.000000 0.000000 3.177611 0.000001 -0.000040 0.000000 -0.000000 0.000000 3.177643 -0.000000 -0.000000 0.104238 0.000000 -0.005787 6.381789 8.050564 -0.115175 0.021308 -0.000000 -0.406588 -4.312391 -8.219373 -0.534091 0.845314 5.867144 -14.178380 -8.898032 42.508850 32.236809 -0.104238 -0.000000 0.005787 2.368280 -2.425383 -0.074075 -0.021045 0.000000 -0.401565 6.399034 5.915126 -0.664852 -3.809035 1.006232 -1.362157 -22.366421 -50.171493 -41.399016 
0.049101 -0.006159 0.862465 -0.000000 0.000000 4.428199 0.000000 0.000000 -0.000000 -5.598701 3.976117 0.403994 9.992360 0.326733 2.661834 -0.000000 0.031809 0.259067 2.955352 -3.306266 1.846488 0.000000 0.003755 0.215098 4.433448 0.000000 0.000003 -0.000000 0.031809 0.259067 -1.047029 0.001174 0.128539 0.165174 -0.000000 -0.000000 33.289109 80.154660 -39.125960 0.286643 0.000125 0.001034 0.500286 6.237089 -8.091435 -0.000000 0.031809 0.259067 -0.991249 0.001052 0.121686 -0.165175 -0.000000 -0.000000 32.756761 -76.007609 41.207873 -0.289110 0.000125 0.001034 0.973987 -8.749571 11.627878 0.000000 0.000000 0.000000 3.239534 0.000001 -0.000042 0.000000 0.000000 0.000000 3.239535 -0.000000 0.000000 0.104232 0.000000 -0.005900 6.866259 8.154034 -0.130208 0.021308 0.000000 -0.406588 -4.644713 -8.254627 -0.576713 0.416294 5.392685 -12.974463 -9.528775 43.173134 32.799596 -0.104232 -0.000000 0.005900 2.394967 -2.392245 -0.075603 -0.021045 -0.000000 -0.401565 6.115494 6.124428 -0.646455 -3.566254 0.440057 -0.187032 -21.550546 -49.684835 -40.940700 
